<?xml version="1.0" encoding="utf-8"?>
<!-- Generator: Adobe Illustrator 23.0.4, SVG Export Plug-In . SVG Version: 6.00 Build 0)  -->
<svg version="1.1" id="Layer_1" xmlns="http://www.w3.org/2000/svg" xmlns:xlink="http://www.w3.org/1999/xlink" x="0px" y="0px"
	 viewBox="0 0 399.45 128.65" style="enable-background:new 0 0 399.45 128.65;" xml:space="preserve">
<g>
	<path d="M21.91,94.34c-1.75,0-3.35-0.33-4.83-0.98c-1.47-0.65-2.21-1.63-2.21-2.94V38.57c0-1.36,0.74-2.34,2.21-2.94
		c1.47-0.6,3.08-0.9,4.83-0.9c1.74,0,3.35,0.3,4.83,0.9c1.47,0.6,2.21,1.58,2.21,2.94v19.98H46.9V38.57c0-1.36,0.74-2.34,2.21-2.94
		c1.47-0.6,3.08-0.9,4.83-0.9c1.74,0,3.35,0.3,4.83,0.9c1.47,0.6,2.21,1.58,2.21,2.94v51.86c0,1.3-0.74,2.28-2.21,2.94
		c-1.47,0.65-3.08,0.98-4.83,0.98c-1.75,0-3.35-0.33-4.83-0.98c-1.47-0.65-2.21-1.63-2.21-2.94v-22.1H28.95v22.1
		c0,1.3-0.74,2.28-2.21,2.94C25.26,94.01,23.65,94.34,21.91,94.34z"/>
	<path d="M92.1,94.83c-4.15,0-7.89-0.62-11.23-1.88c-3.34-1.25-5.99-3.29-7.94-6.11C70.97,84.01,70,80.26,70,75.58V53.98
		c0-4.67,0.98-8.42,2.93-11.25c1.95-2.83,4.6-4.86,7.94-6.11c3.34-1.25,7.08-1.88,11.23-1.88c4.15,0,7.91,0.63,11.28,1.88
		c3.37,1.25,6.03,3.29,7.98,6.11c1.95,2.83,2.93,6.58,2.93,11.25v21.61c0,4.68-0.98,8.43-2.93,11.25c-1.96,2.83-4.62,4.87-7.98,6.11
		C100.01,94.2,96.25,94.83,92.1,94.83z M92.1,83.74c2.53,0,4.51-0.65,5.95-1.96s2.17-3.37,2.17-6.2V53.98c0-2.83-0.72-4.89-2.17-6.2
		s-3.43-1.96-5.95-1.96c-2.53,0-4.5,0.65-5.91,1.96c-1.41,1.3-2.12,3.37-2.12,6.2v21.61c0,2.83,0.71,4.89,2.12,6.2
		C87.6,83.09,89.57,83.74,92.1,83.74z"/>
	<path d="M129.45,94.34c-1.5,0-2.9-0.33-4.2-0.98c-1.29-0.65-1.94-1.63-1.94-2.94V38.57c0-1.36,0.74-2.34,2.21-2.94
		c1.47-0.6,3.08-0.9,4.83-0.9c1.74,0,3.35,0.3,4.83,0.9c1.47,0.6,2.21,1.58,2.21,2.94v44.68h20.57c1.38,0,2.4,0.57,3.07,1.71
		c0.66,1.14,0.99,2.42,0.99,3.83c0,1.36-0.33,2.62-0.99,3.79c-0.66,1.17-1.68,1.75-3.07,1.75H129.45z"/>
	<path d="M174.74,94.34c-1.75,0-3.35-0.33-4.83-0.98c-1.47-0.65-2.21-1.63-2.21-2.94V38.57c0-1.36,0.74-2.34,2.21-2.94
		c1.47-0.6,3.08-0.9,4.83-0.9c1.74,0,3.35,0.3,4.83,0.9c1.47,0.6,2.21,1.58,2.21,2.94v51.86c0,1.3-0.74,2.28-2.21,2.94
		C178.09,94.01,176.48,94.34,174.74,94.34z"/>
	<path d="M197.65,94.34c-1.87,0-3.35-0.38-4.47-1.14c-1.11-0.76-1.67-1.66-1.67-2.69V38.57c0-1.03,0.56-1.93,1.67-2.69
		c1.11-0.76,2.6-1.14,4.47-1.14h15.97c4.15,0,7.91,0.63,11.28,1.88c3.37,1.25,6.03,3.29,7.98,6.11c1.95,2.83,2.93,6.58,2.93,11.25
		V75.1c0,4.68-0.98,8.43-2.93,11.25c-1.96,2.83-4.62,4.87-7.98,6.11c-3.37,1.25-7.13,1.88-11.28,1.88H197.65z M205.59,83.25h8.03
		c2.53,0,4.51-0.67,5.95-2c1.44-1.33,2.17-3.38,2.17-6.16V53.98c0-2.77-0.72-4.82-2.17-6.16c-1.44-1.33-3.43-2-5.95-2h-8.03V83.25z"
		/>
	<path d="M249.26,94.34c-1.26,0-2.6-0.23-4.01-0.69c-1.41-0.46-2.6-1.09-3.56-1.88c-0.96-0.79-1.44-1.67-1.44-2.65
		c0-0.16,0.06-0.46,0.18-0.9l16.78-49.74c0.48-1.41,1.62-2.47,3.43-3.18c1.8-0.71,3.73-1.06,5.77-1.06c2.1,0,4.04,0.35,5.82,1.06
		c1.77,0.71,2.9,1.77,3.38,3.18l16.87,49.74c0.12,0.44,0.18,0.73,0.18,0.9c0,0.98-0.48,1.86-1.44,2.65
		c-0.96,0.79-2.14,1.41-3.52,1.88c-1.38,0.46-2.74,0.69-4.06,0.69c-1.14,0-2.12-0.18-2.93-0.53c-0.81-0.35-1.37-0.96-1.67-1.83
		l-3.07-10.19h-19.04l-3.07,10.19c-0.24,0.87-0.78,1.48-1.62,1.83C251.39,94.16,250.4,94.34,249.26,94.34z M259.82,72h13.17
		l-6.59-21.85L259.82,72z"/>
	<path d="M297.89,94.34c-1.44,0-2.48-0.31-3.11-0.94c-0.63-0.62-0.95-1.43-0.95-2.41c0-1.41,0.51-2.91,1.53-4.48l25.44-40.69h-20.93
		c-1.32,0-2.36-0.56-3.11-1.67c-0.75-1.11-1.13-2.4-1.13-3.87c0-1.36,0.33-2.62,0.99-3.79c0.66-1.17,1.74-1.75,3.25-1.75h34.82
		c1.38,0,2.4,0.31,3.07,0.94c0.66,0.63,0.99,1.43,0.99,2.41c0,1.3-0.51,2.8-1.53,4.48l-25.44,40.69h24.54c1.38,0,2.44,0.6,3.16,1.79
		c0.72,1.2,1.08,2.45,1.08,3.75c0,1.3-0.36,2.56-1.08,3.75c-0.72,1.2-1.77,1.79-3.16,1.79H297.89z"/>
	<path d="M352.38,94.34c-1.5,0-2.9-0.33-4.2-0.98c-1.29-0.65-1.94-1.63-1.94-2.94V38.65c0-1.3,0.65-2.28,1.94-2.94
		c1.29-0.65,2.69-0.98,4.2-0.98h32.12c1.5,0,2.59,0.58,3.25,1.75c0.66,1.17,0.99,2.41,0.99,3.71c0,1.52-0.36,2.84-1.08,3.95
		c-0.72,1.11-1.77,1.67-3.16,1.67h-24.18V59.6h13.53c1.38,0,2.44,0.5,3.16,1.51c0.72,1.01,1.08,2.16,1.08,3.47
		c0,1.09-0.33,2.16-0.99,3.22c-0.66,1.06-1.75,1.59-3.25,1.59h-13.53v13.86h24.18c1.38,0,2.44,0.56,3.16,1.67
		c0.72,1.11,1.08,2.43,1.08,3.95c0,1.3-0.33,2.54-0.99,3.71c-0.66,1.17-1.75,1.75-3.25,1.75H352.38z"/>
</g>
</svg>
