<?xml version="1.0" encoding="utf-8"?>
<!-- Generator: Adobe Illustrator 23.0.4, SVG Export Plug-In . SVG Version: 6.00 Build 0)  -->
<svg version="1.1" id="Layer_1" xmlns="http://www.w3.org/2000/svg" xmlns:xlink="http://www.w3.org/1999/xlink" x="0px" y="0px"
	 viewBox="0 0 399.45 128.65" style="enable-background:new 0 0 399.45 128.65;" xml:space="preserve">
<style type="text/css">
	.st0{fill:none;}
	.st1{fill:#FFFFFF;}
	.st2{stroke:#000000;stroke-width:6;stroke-miterlimit:10;}
</style>
<g>
	<g>
		<path class="st0" d="M84.29,81.45c-1.75,0-3,0.63-4.04,2.03c-1.2,1.63-1.81,3.99-1.81,7.03c0,3.03,0.61,5.38,1.8,6.97
			c1.04,1.39,2.29,2.01,4.05,2.01c1.82,0,3.08-0.6,4.09-1.96c1.17-1.57,1.77-3.93,1.77-7.02c0-3.1-0.6-5.48-1.78-7.08
			C87.36,82.06,86.1,81.45,84.29,81.45z"/>
		<path d="M176.44,83.29c-1.1,1.52-1.66,3.92-1.66,7.14c0,3.13,0.57,5.53,1.7,7.14c0.93,1.33,2.13,1.92,3.91,1.92
			c2.44,0,3.74-0.75,4.51-1.53V83.09c-1.11-1.11-2.57-1.64-4.51-1.64C178.58,81.45,177.36,82.02,176.44,83.29z"/>
		<path d="M325.67,81.81c-0.93-0.88-2.06-1.29-3.55-1.29c-2.47,0-4.11,0.59-5.12,1.93h9.24C326.06,82.22,325.87,82.01,325.67,81.81z
			"/>
		<path d="M223.39,97.67c-0.6,0.32-0.7,0.59-0.7,1.11c0,0.25,0,0.5,0.56,0.88c0.52,0.35,1.58,0.76,3.69,0.76
			c2.26,0,4.24-0.64,6.03-1.96V97.4c-1.53-0.4-3.21-0.6-5.02-0.6C226,96.81,224.46,97.1,223.39,97.67z"/>
		<path d="M392.2,50.21c-16.67-14.32-33.32-28.64-49.98-42.97c-1.71-1.47-1.72-1.46-3.4,0c-5.53,4.8-19.36,16.75-31,26.83
			c-10.4-8.94-20.8-17.89-31.21-26.83c-1.71-1.47-1.72-1.46-3.4,0c-5.06,4.4-17.08,14.78-28.01,24.24
			C235.8,23.4,226.4,15.32,217,7.24c-1.71-1.47-1.72-1.46-3.4,0c-10.1,8.78-47.92,41.37-49.45,42.95c-0.36,0.38-0.66,0.99-0.68,1.5
			c-0.17,5.39-0.28,10.79-0.36,16.18c-0.01,0.47,0.23,1.2,0.57,1.36c0.32,0.15,1.02-0.16,1.39-0.47c1.63-1.36,3.19-2.8,4.98-4.38
			c0,0.65,0,1.03,0,1.42c0,0.34,0,0.68,0,1.02c2.59-1.27,5.48-1.92,8.64-1.92c2.29,0,4.36,0.39,6.2,1.16V54.16L202,42l-0.14,66h6.5
			c-1.57-2.56-2.38-5.64-2.38-9.22c0-5.66,2.11-10.06,6.26-13.06c0.24-0.17,0.48-0.34,0.73-0.5l-5.11-13.41l1.97-1.33
			c5.49-3.7,11.98-5.57,19.31-5.57c2.51,0,4.79,0.22,6.77,0.66c2.05,0.46,4.18,1.3,6.34,2.5c2.48,1.39,4.4,3.57,5.71,6.5
			c1.21,2.71,1.82,6.06,1.82,9.95V108h4.12v-5.73l18.53-20.57H255.5V65.92h40.59v12.49l-18.51,20.83h18.43V108h8.26
			c-3.51-4.44-5.31-10.33-5.31-17.57c0-7.65,2.09-13.86,6.21-18.45c4.2-4.69,9.91-7.07,16.96-7.07c6.41,0,11.74,2.03,15.85,6.04
			c4.13,4.03,6.22,9.85,6.22,17.29c0,2.92-0.12,5.18-0.37,6.92l-0.37,2.58h-9.04l7.77,7.87l-1.73,2.09c-0.09,0.1-0.18,0.2-0.26,0.3
			h46.37c0-13.79,0-27.59,0-41.38c0-0.37,0-0.74,0-1.32c1.63,1.3,3.04,2.47,4.51,3.57c0.36,0.27,1.02,0.51,1.34,0.36
			c0.32-0.16,0.55-0.82,0.56-1.27c0.04-5.33,0.01-10.66,0.03-16C393,51.23,392.77,50.7,392.2,50.21z"/>
		<polygon class="st1" points="39.11,73.26 20.39,73.26 20.39,49.97 3,49.97 3,115.03 20.39,115.03 20.39,90.06 39.11,90.06 
			39.11,115.03 56.5,115.03 56.5,49.97 39.11,49.97 		"/>
		<path class="st1" d="M84.29,64.91c-6.95,0-12.57,2.39-16.72,7.09c-4.05,4.59-6.11,10.83-6.11,18.52c0,7.75,2.04,13.99,6.07,18.53
			c4.12,4.64,9.76,7,16.76,7c7,0,12.64-2.35,16.75-7c4.03-4.54,6.07-10.77,6.07-18.53c0-7.69-2.05-13.92-6.11-18.52
			C96.86,67.29,91.23,64.91,84.29,64.91z M88.38,97.54c-1.01,1.35-2.27,1.96-4.09,1.96c-1.76,0-3.01-0.62-4.05-2.01
			c-1.2-1.6-1.8-3.94-1.8-6.97c0-3.04,0.61-5.4,1.81-7.03c1.04-1.41,2.29-2.03,4.04-2.03c1.81,0,3.07,0.61,4.08,1.98
			c1.18,1.6,1.78,3.98,1.78,7.08C90.15,93.6,89.55,95.97,88.38,97.54z"/>
		<polygon class="st1" points="112.08,115.03 129.05,115.03 129.05,46.4 112.08,54.36 		"/>
		<path class="st1" d="M154.11,57.44c0-2.59-0.95-4.89-2.76-6.66c-1.79-1.74-4.09-2.67-6.65-2.67c-2.58,0-4.89,0.95-6.68,2.73
			c-1.79,1.79-2.73,4.07-2.73,6.59s0.96,4.82,2.78,6.63c0.77,0.77,1.62,1.38,2.54,1.84h-4.39v49.11h16.97V65.92h-4.31
			c0.91-0.45,1.75-1.05,2.5-1.8C153.16,62.33,154.11,60.02,154.11,57.44z"/>
	</g>
</g>
<g>
	<polygon points="39.11,73.26 20.39,73.26 20.39,49.97 3,49.97 3,115.03 20.39,115.03 20.39,90.06 39.11,90.06 39.11,115.03 
		56.5,115.03 56.5,49.97 39.11,49.97 	"/>
	<path d="M84.29,64.91c-6.95,0-12.57,2.39-16.72,7.09c-4.05,4.59-6.11,10.83-6.11,18.52c0,7.75,2.04,13.99,6.07,18.53
		c4.12,4.64,9.76,7,16.76,7c7,0,12.64-2.35,16.75-7c4.03-4.54,6.07-10.77,6.07-18.53c0-7.69-2.05-13.92-6.11-18.52
		C96.86,67.29,91.23,64.91,84.29,64.91z M90.15,90.52c0,3.09-0.59,5.45-1.77,7.02c-1.01,1.35-2.27,1.96-4.09,1.96
		c-1.76,0-3.01-0.62-4.05-2.01c-1.2-1.6-1.8-3.94-1.8-6.97c0-3.04,0.61-5.4,1.81-7.03c1.04-1.41,2.29-2.03,4.04-2.03
		c1.81,0,3.07,0.61,4.08,1.98C89.55,85.04,90.15,87.42,90.15,90.52z"/>
	<polygon points="112.08,115.03 129.05,115.03 129,40 112.08,54.36 	"/>
	<rect x="136.21" y="65.92" width="16.97" height="49.11"/>
	<circle cx="144.5" cy="53.5" r="9.5"/>
	<path d="M135,53.5c0-5.25,4.25-9.5,9.5-9.5c0.5,0,9.5,9,9.5,9.5"/>
</g>
<line class="st2" x1="3" y1="124" x2="387" y2="124"/>
</svg>
